<?xml version="1.0" standalone="no"?>
<!DOCTYPE svg PUBLIC "-//W3C//DTD SVG 20010904//EN"
 "http://www.w3.org/TR/2001/REC-SVG-20010904/DTD/svg10.dtd">
<svg version="1.0" xmlns="http://www.w3.org/2000/svg"
 width="576.000000pt" height="576.000000pt" viewBox="0 0 576.000000 576.000000"
 preserveAspectRatio="xMidYMid meet">
<metadata>
Created by potrace 1.16, written by Peter Selinger 2001-2019
</metadata>
<g transform="translate(0.000000,576.000000) scale(0.100000,-0.100000)"
fill="#000000" stroke="none">
<path d="M0 2880 l0 -2880 2880 0 2880 0 0 2880 0 2880 -2880 0 -2880 0 0
-2880z m3467 1469 c307 -62 533 -210 633 -414 116 -237 114 -503 -6 -890 -34
-111 -83 -224 -173 -400 l-76 -150 -2 -160 c-1 -88 1 -163 3 -167 3 -4 6 -42
8 -85 3 -43 7 -97 11 -120 l8 -43 -470 0 -470 0 -6 122 c-4 66 -7 155 -7 196
0 61 -3 73 -15 68 -8 -3 -65 -13 -127 -22 -198 -29 -354 -6 -389 58 -8 14 -16
81 -20 168 -8 164 -27 242 -64 266 -20 13 -40 15 -110 9 -71 -6 -89 -5 -111
10 -24 15 -26 22 -22 67 6 59 72 195 152 315 51 76 54 84 46 120 -23 97 -33
271 -21 366 22 185 79 305 206 432 225 224 649 330 1022 254z m430 -3230 c62
-5 125 -14 140 -21 l28 -11 -40 -12 c-200 -61 -778 -71 -1023 -16 -119 26
-123 35 -21 52 157 26 653 31 916 8z"/>
<path d="M3075 4334 c-137 -18 -281 -56 -278 -72 2 -7 -9 -12 -26 -12 -16 0
-44 -6 -62 -14 -32 -13 -32 -14 -9 -18 18 -2 26 -10 28 -29 3 -30 30 -39 108
-39 37 0 44 -3 44 -19 0 -29 18 -35 22 -9 2 17 10 23 28 23 20 0 26 -6 31 -30
6 -30 9 -28 24 20 7 22 43 18 50 -5 9 -27 -1 -40 -33 -41 l-27 -1 29 -7 c16
-3 33 -15 37 -26 6 -17 8 -17 8 -2 1 12 9 17 31 17 19 0 30 5 30 14 0 9 -8 12
-25 8 -22 -4 -25 -1 -25 23 0 25 3 27 30 23 17 -3 33 -1 36 4 7 11 71 10 78
-1 3 -4 17 -6 31 -3 20 3 25 0 25 -17 0 -14 -6 -21 -20 -21 -11 0 -20 -7 -20
-15 0 -8 9 -15 19 -15 20 0 37 -32 26 -50 -3 -5 -15 -10 -26 -10 -10 0 -19 -4
-19 -10 0 -5 6 -10 13 -10 6 0 22 -3 35 -6 21 -6 22 -4 22 68 0 44 5 79 12 86
15 15 74 16 83 2 4 -6 11 -7 17 -4 7 5 9 -5 4 -29 -4 -23 -2 -44 6 -57 11 -17
11 -22 -1 -29 -8 -5 -11 -16 -8 -25 9 -24 67 -18 67 6 0 10 -4 18 -10 18 -5 0
-10 9 -10 20 0 11 5 20 11 20 7 0 9 11 6 30 -4 17 -4 44 0 60 5 26 10 30 39
30 21 0 34 -5 34 -13 0 -7 9 -20 20 -30 16 -14 20 -29 20 -87 l0 -70 33 0 c89
0 135 -36 148 -115 l6 -40 2 38 c1 36 2 37 41 37 40 0 40 0 40 -39 0 -36 -3
-40 -27 -44 -16 -2 -6 -5 23 -6 54 -1 79 -14 88 -46 9 -31 -7 -46 -60 -60 -49
-13 -49 -13 -21 -24 17 -7 27 -18 27 -31 0 -11 6 -20 13 -20 8 0 24 -12 38
-26 l24 -26 -37 -33 c-21 -17 -38 -40 -38 -49 0 -9 -8 -16 -20 -16 -13 0 -20
7 -20 20 0 13 -7 20 -19 20 -14 0 -18 -5 -14 -21 4 -15 0 -22 -16 -26 -40 -10
-21 -23 37 -23 90 0 132 -10 132 -30 0 -10 -7 -20 -15 -24 -8 -3 -15 -12 -15
-21 0 -8 7 -15 15 -15 8 0 15 -9 15 -20 0 -13 -7 -20 -20 -20 -11 0 -20 7 -20
15 0 8 -4 15 -9 15 -5 0 -16 -7 -25 -15 -17 -17 -46 -20 -46 -5 0 6 -7 10 -15
10 -8 0 -15 -5 -15 -10 0 -6 -10 -15 -22 -20 -17 -6 -18 -9 -6 -9 9 -1 27 -19
39 -41 12 -22 24 -38 26 -36 3 2 -1 13 -9 25 -17 28 1 46 37 37 25 -6 26 -9
19 -51 -6 -43 5 -61 21 -35 3 6 15 10 26 10 14 0 19 -7 19 -25 0 -22 -4 -25
-40 -25 -22 0 -40 -2 -40 -4 0 -2 7 -20 15 -39 20 -48 20 -47 -21 -40 l-37 6
7 -34 c4 -19 9 -96 13 -171 5 -130 5 -138 -13 -139 -12 -1 -6 -5 14 -11 27 -9
32 -16 33 -42 0 -26 10 -12 55 79 77 157 136 319 118 323 -9 2 -14 17 -14 43
0 35 3 39 25 39 20 0 26 7 34 38 27 100 41 200 35 255 -5 39 -3 57 5 57 14 0
15 96 0 106 -6 3 -9 22 -6 43 7 53 -31 192 -54 198 -11 3 -19 10 -19 15 0 5 5
6 11 2 7 -4 10 1 7 12 -2 11 -13 20 -26 22 -17 3 -22 10 -22 32 0 50 -9 60
-52 60 l-40 0 4 38 c3 33 -2 42 -38 75 -23 20 -44 37 -48 37 -3 0 -6 -13 -6
-30 0 -28 -3 -30 -35 -30 -33 0 -35 2 -35 34 0 30 3 35 28 38 l27 3 -37 22
c-30 18 -38 19 -38 8 0 -11 -12 -15 -40 -15 -39 0 -40 1 -38 32 3 31 1 33 -60
55 -166 60 -377 81 -557 57z"/>
<path d="M3013 3930 c-38 -23 -45 -45 -41 -125 2 -45 7 -60 18 -60 11 0 16 16
20 68 3 45 10 71 20 77 9 6 146 10 322 10 265 0 309 -2 322 -16 12 -11 16 -36
16 -94 0 -62 3 -81 16 -88 15 -8 15 -10 0 -15 -14 -6 -16 -31 -16 -201 0 -190
-1 -195 -22 -210 -19 -14 -67 -16 -320 -16 -285 0 -299 1 -318 20 -19 19 -20
33 -20 204 0 144 -3 186 -14 195 -23 19 -26 -8 -26 -200 0 -197 8 -231 56
-249 14 -6 162 -10 335 -10 l311 0 29 29 29 29 0 306 0 305 -24 28 -24 28
-319 3 c-302 2 -320 1 -350 -18z"/>
<path d="M3162 3782 c-9 -7 -12 -54 -10 -203 l3 -194 195 0 195 0 3 98 c2 82
0 97 -13 97 -14 0 -14 4 0 37 17 41 14 63 -9 63 -13 0 -16 -22 -18 -127 l-3
-128 -155 0 -155 0 -3 158 -3 157 161 0 c136 0 160 -2 160 -15 0 -8 9 -15 20
-15 15 0 20 7 20 24 0 51 -17 56 -203 56 -95 0 -178 -4 -185 -8z"/>
<path d="M3074 2841 c-63 -38 -70 -128 -13 -175 17 -14 35 -26 40 -26 5 0 9
-27 9 -61 0 -56 3 -65 40 -111 l40 -51 0 -202 c0 -111 3 -204 6 -208 3 -3 12
-3 20 0 11 4 14 44 14 215 l0 210 -40 50 c-34 43 -40 58 -40 98 0 44 3 50 33
69 39 24 60 59 60 101 0 88 -92 138 -169 91z m106 -41 c28 -28 27 -84 -2 -104
-34 -24 -73 -20 -97 10 -27 35 -26 59 4 89 29 30 68 32 95 5z"/>
<path d="M3463 2840 c-45 -27 -63 -87 -40 -136 10 -19 30 -42 46 -52 25 -14
29 -23 35 -81 6 -54 13 -72 41 -107 l35 -42 2 -208 c3 -178 5 -209 18 -209 13
0 15 32 18 216 l2 216 -35 46 c-30 40 -35 53 -35 101 0 44 3 56 18 60 32 11
63 53 68 93 12 94 -89 155 -173 103z m107 -40 c27 -27 28 -95 1 -110 -28 -14
-63 -12 -89 6 -16 11 -22 25 -22 54 0 29 6 43 22 54 31 22 64 20 88 -4z"/>
<path d="M3304 2690 c-26 -10 -62 -55 -70 -87 -9 -35 23 -100 57 -115 28 -12
29 -16 29 -83 0 -78 2 -82 48 -114 l32 -22 0 -125 c0 -103 3 -126 15 -131 9
-3 18 -3 21 0 3 3 6 66 5 139 l-1 133 -35 30 c-33 29 -35 33 -35 95 0 62 1 66
28 78 29 12 62 67 62 103 0 33 -31 77 -66 94 -35 17 -58 18 -90 5z m87 -59
c16 -16 29 -37 29 -46 0 -21 -53 -75 -74 -75 -28 0 -68 44 -68 75 0 31 40 75
68 75 9 0 29 -13 45 -29z"/>
<path d="M3660 2083 c0 -60 -4 -77 -20 -93 -23 -23 -42 -25 -72 -9 -13 7 -18
7 -14 1 3 -6 -2 -12 -11 -14 -10 -3 51 -8 135 -12 84 -5 155 -7 157 -4 2 2 -1
38 -7 81 l-11 77 -28 -32 c-31 -36 -38 -24 -14 22 l16 30 -33 1 c-73 3 -83 4
-90 14 -4 6 -8 -23 -8 -62z"/>
</g>
</svg>
